<?xml version="1.0" encoding="utf-8"?>
<!-- Generator: Adobe Illustrator 19.0.0, SVG Export Plug-In . SVG Version: 6.00 Build 0)  -->
<svg version="1.1" id="Layer_1" xmlns="http://www.w3.org/2000/svg" xmlns:xlink="http://www.w3.org/1999/xlink" x="0px" y="0px"
	 viewBox="0 0 446 455" style="enable-background:new 0 0 446 455;" xml:space="preserve">
<style type="text/css">
	.st0{fill:#26A9E0;}
	.st1{fill:#00ADEE;}
	.st2{opacity:0.42;fill:url(#SVGID_1_);}
	.st3{opacity:0.42;fill:url(#SVGID_2_);}
</style>
<g>
	<path class="st0" d="M303.2,188.1v118.6c-1.8,0.2-3.6,0.3-5.4,0.4c-3,0.2-6,0.3-9,0.3c-1.8,0-3.7,0.1-5.6,0.2h-152
		c-11.6-1.6-22.8-4.6-33.4-8.7c-47.2-18.4-82.9-60-93-110.7H303.2z"/>
	<path class="st1" d="M288.8,6.5c-62.6,0-116.3,38.3-139,92.7c-7.3,17.7-11.4,37-11.5,57.4v294.9c37.1-7.5,69.3-28.6,91.1-58
		c7-9.4,12.9-19.6,17.5-30.5c5.4-12.7,9.2-26.4,10.9-40.6v-14.5l23.3-0.2c0.7-0.1,1.4-0.1,2.1-0.1c1.9-0.1,3.8-0.2,5.6-0.2
		c3,0,6-0.1,9-0.3c1.8-0.1,3.6-0.3,5.4-0.4c76.3-7.3,136-71.5,136-149.8C439.2,73.8,371.8,6.5,288.8,6.5z M288.8,187.9v0.4h-31
		v-31.3c0-17.1,13.9-31,31-31c17.1,0,31,13.9,31,31S305.9,187.9,288.8,187.9z"/>
	<linearGradient id="SVGID_1_" gradientUnits="userSpaceOnUse" x1="257.7951" y1="247.9666" x2="297.7936" y2="247.9666">
		<stop  offset="0" style="stop-color:#4167B0"/>
		<stop  offset="1" style="stop-color:#478ECC;stop-opacity:0.2"/>
	</linearGradient>
	<path class="st2" d="M297.8,188.1v119c-3,0.2-6,0.3-9,0.3c-1.8,0-3.7,0.1-5.6,0.2c-0.7,0-1.4,0.1-2.1,0.1l-23.3,0.2V188.3l31-0.1
		L297.8,188.1z"/>
	<linearGradient id="SVGID_2_" gradientUnits="userSpaceOnUse" x1="97.7717" y1="247.808" x2="137.7701" y2="247.808">
		<stop  offset="0" style="stop-color:#478ECC;stop-opacity:0.2"/>
		<stop  offset="1" style="stop-color:#4167B0"/>
	</linearGradient>
	<path class="st3" d="M137.8,188.1v119.5h-6.6c-11.6-1.6-22.8-4.6-33.4-8.7V188.3L137.8,188.1z"/>
</g>
</svg>
