<?xml version="1.0" encoding="utf-8"?>
<!-- Generator: Adobe Illustrator 19.0.0, SVG Export Plug-In . SVG Version: 6.00 Build 0)  -->
<svg version="1.1" id="Layer_1" xmlns="http://www.w3.org/2000/svg" xmlns:xlink="http://www.w3.org/1999/xlink" x="0px" y="0px"
	 viewBox="0 0 169 50" style="enable-background:new 0 0 169 50;" xml:space="preserve">
<style type="text/css">
	.st0{fill:#00ADEE;}
	.st1{opacity:0.42;fill:#00ADEE;}
	.st2{fill:#FFFFFF;}
</style>
<g>
	<g>
		<path class="st0" d="M32.8,21.4v10.4c-0.2,0-0.3,0-0.5,0c-0.3,0-0.5,0-0.8,0c-0.2,0-0.3,0-0.5,0H17.7c-1-0.1-2-0.4-2.9-0.8
			c-4.1-1.6-7.3-5.3-8.1-9.7H32.8z"/>
		<path class="st0" d="M31.5,5.5c-5.5,0-10.2,3.4-12.2,8.1c-0.6,1.5-1,3.2-1,5v25.8c3.3-0.7,6.1-2.5,8-5.1c0.6-0.8,1.1-1.7,1.5-2.7
			c0.5-1.1,0.8-2.3,1-3.6v-1.3l2,0c0.1,0,0.1,0,0.2,0c0.2,0,0.3,0,0.5,0c0.3,0,0.5,0,0.8,0c0.2,0,0.3,0,0.5,0
			c6.7-0.6,11.9-6.3,11.9-13.1C44.7,11.4,38.8,5.5,31.5,5.5z M31.5,21.4L31.5,21.4l-2.7,0v-2.7c0-1.5,1.2-2.7,2.7-2.7
			c1.5,0,2.7,1.2,2.7,2.7S33,21.4,31.5,21.4z"/>
		<path class="st1" d="M32.3,21.4v10.4c-0.3,0-0.5,0-0.8,0c-0.2,0-0.3,0-0.5,0c-0.1,0-0.1,0-0.2,0l-2,0V21.4l2.7,0L32.3,21.4z"/>
		<path class="st1" d="M18.3,21.4v10.5h-0.6c-1-0.1-2-0.4-2.9-0.8v-9.7L18.3,21.4z"/>
	</g>
	<g>
		<path class="st2" d="M51.7,27.9c0.1,1.9,2,2.7,4.1,2.7c1.5,0,2.8-0.2,4-0.6l0.6,3c-1.5,0.6-3.3,0.9-5.2,0.9
			c-4.9,0-7.7-2.8-7.7-7.3c0-3.7,2.3-7.7,7.3-7.7c4.7,0,6.4,3.6,6.4,7.2c0,0.8-0.1,1.4-0.1,1.8H51.7z M57,24.8
			c0-1.1-0.5-2.9-2.5-2.9c-1.9,0-2.7,1.7-2.8,2.9H57z"/>
		<path class="st2" d="M68.5,13.8v7.6h7.4v-7.6h4.5v19.8h-4.5v-8.3h-7.4v8.3H64V13.8H68.5z"/>
		<path class="st2" d="M96.1,25.2h-7.3V30h8.2v3.7H84.2V13.8h12.3v3.7h-7.7v4.1h7.3V25.2z"/>
		<path class="st2" d="M104.6,28.5l-1.4,5.1h-4.7l6.1-19.8h5.9l6.2,19.8h-4.8l-1.5-5.1H104.6z M109.6,25.2l-1.2-4.2
			c-0.4-1.2-0.7-2.7-1-3.8h-0.1c-0.3,1.2-0.6,2.7-0.9,3.8l-1.2,4.2H109.6z"/>
		<path class="st2" d="M119.3,13.8h4.5v16.1h7.9v3.8h-12.4V13.8z"/>
		<path class="st2" d="M135.1,17.6h-5.3v-3.8H145v3.8h-5.4v16.1h-4.5V17.6z"/>
		<path class="st2" d="M151.9,13.8v7.6h7.4v-7.6h4.5v19.8h-4.5v-8.3h-7.4v8.3h-4.5V13.8H151.9z"/>
	</g>
</g>
</svg>
